Coordinates
version=1
nRows=19
nColumns=36
inDegrees=yes

Units are S.I. units (second, meters, Newtons, ...)
If the header above contains a line with 'inDegrees', this indicates whether rotational values are in degrees (yes) or radians (no).

endheader
time	pelvis_tilt	pelvis_list	pelvis_rotation	pelvis_tx	pelvis_ty	pelvis_tz	hip_flexion_r	hip_adduction_r	hip_rotation_r	knee_angle_r	knee_angle_r_beta	ankle_angle_r	subtalar_angle_r	mtp_angle_r	hip_flexion_l	hip_adduction_l	hip_rotation_l	knee_angle_l	knee_angle_l_beta	ankle_angle_l	subtalar_angle_l	mtp_angle_l	lumbar_extension	lumbar_bending	lumbar_rotation	arm_flex_r	arm_add_r	arm_rot_r	elbow_flex_r	pro_sup_r	arm_flex_l	arm_add_l	arm_rot_l	elbow_flex_l	pro_sup_l
      4.11250000	     -9.73186027	     -0.15710632	    -10.55677626	      0.37659834	      0.92015945	     -0.13846751	     14.40715295	     -5.69714222	     12.69083149	      3.85468260	      0.06727690	     -0.03677003	    -11.85424736	     -7.49999987	      4.00311385	     -3.62551851	     -2.13014946	      1.47777804	      0.02579209	      9.17960763	    -10.90415300	     -7.49999987	     -2.17849295	      2.77893269	     -9.94389190	      4.60481421	     -3.14806258	    -15.41385168	     30.84852115	     79.78585447	      9.82348001	    -18.26115408	     37.15000992	     91.50141682	     92.93747524
      4.11666670	     -9.75546077	     -0.19383150	    -10.46735438	      0.37656729	      0.91991114	     -0.13882131	     14.36698620	     -5.67536694	     12.30575392	      3.77887981	      0.06595389	      0.11220337	    -11.31734185	     -7.49999987	      4.00685898	     -3.63397561	     -1.81643997	      1.38604741	      0.02419109	      8.79963654	    -11.50244251	     -7.49999987	     -2.15551858	      2.78566415	    -10.11686196	      4.76849296	     -3.12716350	    -15.64304938	     29.70358023	     77.15546972	     10.31843964	    -18.55943768	     38.18293948	     91.81158635	     89.67464762
      4.12083330	     -9.38227553	     -0.22490448	    -10.56252224	      0.37220066	      0.92285995	     -0.14342612	     13.95165658	     -5.78922473	     12.35823413	      3.56944980	      0.06229865	      0.06923819	    -11.04553678	     -7.49999987	      3.60331568	     -3.53101155	     -2.32431497	      1.25337525	      0.02187552	      9.10611242	    -10.58281356	     -7.49999987	     -3.14607133	      2.89859724	    -10.23862057	      4.69380145	     -3.40613174	    -15.43268191	     30.53685084	     77.72577867	     10.76822268	    -18.69276699	     38.24766240	     92.62040121	     90.30399091
      4.12500000	     -9.08789362	     -0.22190324	    -10.54337741	      0.37198070	      0.92281790	     -0.14363812	     13.66146187	     -5.90015067	     12.26953163	      3.40261968	      0.05938692	      0.00862222	    -10.84287918	     -7.49999987	      3.35504085	     -3.39595060	     -2.40605996	      1.20382214	      0.02101066	      9.04976700	    -10.53193646	     -7.49999987	     -3.83989983	      2.94285275	    -10.46198062	      4.99948169	     -3.50665202	    -16.55730300	     30.23220864	     80.24313224	     11.18206737	    -18.88856212	     38.28601474	     93.23453795	     93.40359415
      4.12916670	     -8.91989347	     -0.17474278	    -10.51586474	      0.36729135	      0.91865225	     -0.14759424	     13.68699505	     -6.08527878	     12.02224881	      3.43866596	      0.06001604	      0.07474125	    -10.46998436	     -7.49999987	      3.35824306	     -3.20651542	     -2.36703275	      1.20905282	      0.02110195	      9.03697683	    -10.54517481	     -7.49999987	     -4.55487914	      3.02262382	    -10.54225604	      5.23984155	     -3.77493875	    -16.88455145	     30.36933135	     78.84621463	     12.23573948	    -19.09848732	     39.15296206	     94.09907049	     91.56401150
      4.13333330	     -8.85362640	     -0.06262756	    -10.53399473	      0.36714808	      0.91526201	     -0.14744148	     13.87010865	     -6.27332593	     12.07044864	      3.54749932	      0.06191554	     -0.02552797	    -10.57370916	     -7.49999987	      3.50043419	     -2.98753449	     -2.41626113	      1.29032277	      0.02252038	      9.17648533	    -10.55380656	     -7.49999987	     -5.00784765	      3.03661370	    -10.80517948	      5.51385264	     -4.02643239	    -17.35633024	     30.41621466	     78.86540737	     13.03817952	    -19.53232641	     39.80292343	     95.48622419	     91.45924463
      4.13750000	     -8.77787871	     -0.03675062	    -10.56887055	      0.36696536	      0.91582041	     -0.14768659	     14.05023104	     -6.37745750	     11.85291729	      3.77641556	      0.06591089	      0.11652324	    -10.18984290	     -7.49999987	      3.52702509	     -2.89625796	     -2.53037368	      1.28434792	      0.02241610	      9.32931018	    -10.33316254	     -7.49999987	     -5.50959404	      3.15539939	    -10.87859453	      5.66827742	     -4.21084312	    -17.98973379	     30.73821054	     77.27867997	     14.10658595	    -19.86881933	     40.81245976	     96.60794591	     89.05329446
      4.14166670	     -9.04974860	      0.07863750	    -10.58133071	      0.36692566	      0.90896125	     -0.14711997	     14.60854411	     -6.52120580	     11.76104613	      4.05656394	      0.07080040	      0.38601794	    -10.00951835	     -7.49999987	      3.95816478	     -2.79606564	     -2.33483300	      1.37051840	      0.02392006	      9.49964085	    -10.61626629	     -7.49999987	     -5.34029311	      3.15735148	    -11.22880828	      5.80965042	     -4.38855936	    -18.88438014	     30.75421299	     76.83292575	     14.92799340	    -20.17377132	     41.51221874	     97.64568537	     88.69272780
      4.14583330	     -9.28068425	      0.18426388	    -10.74731046	      0.36684645	      0.90888170	     -0.14686378	     15.17074269	     -6.58931918	     11.86211990	      4.46426725	      0.07791616	      0.56968001	     -9.97243448	     -7.49999987	      4.26838845	     -2.74087298	     -2.66763520	      1.45503600	      0.02539517	     10.04399417	    -10.07793277	     -7.49999987	     -5.19416006	      3.22263810	    -11.63839068	      5.50250299	     -4.17232664	    -20.97859146	     31.63961059	     80.90327070	     15.33915022	    -20.30243422	     41.30312016	     98.56789966	     93.48105785
      4.15000000	     -9.64215830	      0.38751116	    -10.89317052	      0.36284915	      0.90903380	     -0.15128972	     16.00962595	     -6.79972096	     11.94766373	      4.95907532	      0.08655219	      0.82836326	     -9.87634600	     -7.49999987	      4.84688261	     -2.52923366	     -2.70297945	      1.53273120	      0.02675121	     10.20583758	    -10.13665948	     -7.49999987	     -4.94526728	      3.27019241	    -12.17173247	      5.33325514	     -4.19534657	    -21.46759353	     32.11357154	     80.88164230	     15.80244964	    -20.42009792	     41.41745784	     99.43133060	     93.41821028
      4.15416670	     -9.76116589	      0.56580644	    -10.91620371	      0.36689006	      0.90921728	     -0.15576502	     16.42111343	     -7.11429657	     11.91441964	      5.33717920	      0.09315135	      0.86489724	     -9.81674348	     -7.49999987	      5.07157049	     -2.24959620	     -2.71179547	      1.58817824	      0.02771894	     10.32314370	    -10.21690859	     -7.49999987	     -4.83807070	      3.33758840	    -12.52520906	      5.24709626	     -4.47723021	    -21.85193420	     32.23492484	     80.84371635	     16.17244355	    -20.15216044	     41.40970644	     99.99643006	     93.36950644
      4.15833330	    -10.14466913	      0.74260347	    -11.12894869	      0.36304620	      0.91252715	     -0.15133028	     17.13317495	     -7.23355681	     12.05182734	      5.60647663	      0.09785148	      1.05594517	     -9.54101940	     -7.49999987	      5.57422738	     -2.07715765	     -2.87391967	      1.55631200	      0.02716277	     10.27112118	    -10.35606845	     -7.49999987	     -4.53222898	      3.35526057	    -12.70655213	      4.95959651	     -4.25701288	    -22.47831400	     32.25593217	     80.77631507	     16.15786171	    -20.19683043	     41.21486251	    100.52524787	     93.26556320
      4.16250000	    -10.46772464	      0.87669335	    -11.16231490	      0.36310372	      0.90855101	     -0.15079292	     17.64309274	     -7.34810875	     12.12850787	      5.70934021	      0.09964678	      1.06613571	     -9.50247051	     -7.49999987	      6.04253640	     -1.97061286	     -2.80089833	      1.72089910	      0.03003536	     10.28339398	    -10.60094335	     -7.49999987	     -4.10317408	      3.30695475	    -13.18842436	      4.51744637	     -3.97190271	    -22.91638356	     32.19494619	     80.80335840	     15.92548070	    -20.22318289	     40.62130560	    100.79360599	     92.21207782
      4.16666670	    -10.68099380	      0.99334102	    -11.22495676	      0.36757026	      0.91554965	     -0.15619757	     17.93579308	     -7.54822323	     11.69471493	      5.84263339	      0.10197319	      1.39905549	     -8.43673594	     -7.49999987	      6.21145386	     -1.83681504	     -2.89878687	      1.63988855	      0.02862145	     10.13750397	    -10.42965032	     -7.49999987	     -3.64661753	      3.29923425	    -13.49088918	      4.16245328	     -3.80630853	    -23.39978533	     31.46511300	     78.87598631	     16.06733078	    -19.94414297	     40.73892393	    100.16206796	     89.74181109
      4.17083330	    -10.50787015	      1.00789010	    -11.39918194	      0.36745182	      0.91182218	     -0.15544958	     17.67676734	     -7.64688670	     12.17755998	      5.63278472	      0.09831064	      1.04176163	     -8.98500137	     -7.49999987	      5.93937964	     -1.71943373	     -2.98887353	      1.62546156	      0.02836966	     10.13348873	    -10.68210836	     -7.49999987	     -3.87871475	      3.48827385	    -13.77398659	      3.58752585	     -3.92342006	    -22.72849951	     32.35904352	     78.61686061	     15.96399018	    -19.67212643	     39.75416705	    100.47228810	     88.97825104
      4.17500000	    -10.53009603	      1.03194923	    -11.57248119	      0.36353120	      0.91192393	     -0.15085222	     17.74974417	     -7.59483066	     12.27730858	      5.58025960	      0.09739390	      0.95718211	     -8.88735990	     -7.49999987	      5.91289696	     -1.71483193	     -3.06475004	      1.60742280	      0.02805482	     10.12658740	    -10.67720880	     -7.49999987	     -3.80899661	      3.48830267	    -13.97962498	      3.27628983	     -3.68144736	    -22.68570608	     32.24067063	     78.65212029	     16.33800706	    -19.73983126	     39.47532856	    100.46555918	     89.01004036
      4.17916670	    -10.63105926	      1.07758148	    -11.92422629	      0.36344289	      0.90791323	     -0.15012804	     18.00591279	     -7.49775387	     12.46195092	      5.62865845	      0.09823862	      0.92549839	     -8.73083644	     -7.49999987	      5.96191918	     -1.74347963	     -3.55265594	      1.63084062	      0.02846354	     10.40633142	    -10.11066503	     -7.49999987	     -3.31025853	      3.34268818	    -14.64500392	      3.24280176	     -3.47593200	    -22.49123254	     31.93380928	     80.86002000	     15.82022019	    -19.95545448	     37.73328697	    100.90914076	     92.40409607
      4.18333330	    -10.53896738	      1.07959243	    -12.18050067	      0.36754977	      0.90831755	     -0.15512242	     17.95852153	     -7.52531841	     12.56086280	      5.69304522	      0.09936238	      0.79037339	     -8.61808667	     -7.49999987	      5.75764470	     -1.70588412	     -3.64753861	      1.61734157	      0.02822794	     10.42728025	    -10.15804903	     -7.49999987	     -2.99689912	      3.31301740	    -14.93426628	      3.03942548	     -3.54267734	    -22.54151287	     31.93834040	     80.86072763	     15.99588089	    -19.92324206	     37.64368901	    100.97329875	     92.39961623
      4.18750000	    -10.52785511	      1.08562021	    -12.64887843	      0.36347584	      0.91169168	     -0.15029177	     18.08312362	     -7.37906098	     12.87814758	      5.68028579	      0.09913969	      0.70443616	     -8.40918409	     -7.49999987	      5.58526526	     -1.71683017	     -3.90619731	      1.47970954	      0.02582580	     10.49729286	    -10.27330994	     -7.49999987	     -2.65269337	      3.19472516	    -15.04552778	      2.96167128	     -3.26489061	    -22.54920591	     32.02700814	     80.88183114	     16.11218887	    -20.22779267	     37.25250998	    100.71384486	     92.37059833
